<svg xmlns="http://www.w3.org/2000/svg" xmlns:xlink="http://www.w3.org/1999/xlink" width="253px" height="60px" viewBox="0 0 253 60"><title>Logo_KSR_Autos</title><g id="Page-1" stroke="none" stroke-width="1" fill="none" fill-rule="evenodd"><g id="Design_KSR_Autos" transform="translate(-50, -25)" fill-rule="nonzero"><g id="Logo_KSR_Autos" transform="translate(50, 25)"><g id="Group" transform="translate(0, -0)"><path d="M252.475866,37.3020844 C250.107655,36.7484767 247.739444,36.1333571 245.371234,35.6720173 C239.435329,34.5340459 233.499424,33.3345626 227.532763,32.4118831 C215.199614,30.5050121 202.804953,29.6746006 190.34878,30.0436724 C180.476109,30.3512322 170.603439,30.9048399 160.761524,31.8275194 C150.704318,32.7809549 140.708623,34.441778 130.682172,35.6412613 C123.177713,36.5331848 115.642497,36.3794049 108.168793,35.3644575 C101.894572,34.5340459 95.6511076,33.5498545 89.438399,32.3196152 C83.5024943,31.1508878 77.6896135,29.5515767 71.7844647,28.2290694 C63.2343014,26.2914425 54.6841381,24.2923035 46.0724628,22.6007245 C39.3369025,21.2782172 32.5090742,20.8168774 25.619734,21.555021 C15.4395035,22.6622364 7.07387613,26.9988301 0.522851714,34.8416058 C0.369071798,35.0261417 0.215291882,35.2106776 -4.37068808e-15,35.3337015 C2.15291882,29.2440168 5.81288082,24.4153275 11.5642497,21.3089732 C17.0695707,18.3256428 23.0669874,17.4337193 29.218184,17.2799394 C35.7076965,17.0954035 42.1664529,17.6797672 48.5636974,18.7869826 C59.8203873,20.7246095 71.0463211,22.8775283 82.3337669,24.7536433 C91.8681217,26.3221984 101.463988,27.8599976 111.059855,28.967213 C119.517751,29.9206485 128.037158,29.9206485 136.556565,29.3055288 C146.982844,28.5366292 157.409122,27.9830215 167.8354,27.3371459 C180.445353,26.5374903 193.086062,26.1991745 205.696015,26.8450501 C221.350811,27.6754617 236.66729,30.1974523 251.184115,36.5024289 C251.645454,36.7177207 252.106794,36.9330126 252.568134,37.1790605 C252.568134,37.2405725 252.537378,37.3020844 252.506622,37.3635964" id="Path" fill="#FFFFFF"></path><path d="M155.256203,17.2184274 C154.856375,17.0338915 154.456547,16.8493556 154.05672,16.6648197 C142.277178,10.7904269 129.882517,7.09970896 116.780468,5.77720168 C107.338381,4.8237662 97.8962944,5.0083021 88.4849636,6.02324954 C77.9971733,7.13046494 67.7861869,9.59094359 57.5136885,11.8668863 C44.1655918,14.8502167 31.5248827,12.7895658 19.8376091,5.50039783 C19.5915613,5.34661791 19.3762694,5.192838 19.1302215,5.0083021 C19.0687096,4.94679013 19.0071976,4.85452218 18.8226617,4.60847432 C20.8833126,5.3773739 22.7594275,6.17702946 24.6970545,6.79214912 C30.2946434,8.54524016 36.0460123,9.09884786 41.8896491,8.72977606 C52.0698795,8.08390042 61.8810381,5.40812988 71.8152207,3.31672303 C82.149231,1.1638042 92.5755093,-0.312482987 103.186324,0.0565888105 C113.674114,0.425660608 123.762076,2.57857943 133.573235,6.20778544 C140.862403,8.91431196 147.782499,12.3589821 154.456547,16.3265039 C154.794863,16.5417958 155.133179,16.7570877 155.440739,17.0031355 C155.409983,17.0954035 155.348471,17.1569155 155.317715,17.2491834" id="Path" fill="#D05727"></path></g><g id="Group" transform="translate(9.5959, 42.0385)" fill="#D05727"><path d="M22.2058198,17.6539343 L13.9632164,17.6539343 L9.47284281,13.0097809 C7.90428767,11.4412257 7.19690006,10.6723262 6.73556031,10.0572065 L6.36648852,12.5791971 L5.474565,17.6231784 L0,17.6231784 L3.13711028,0 L8.5809193,0 L7.87353169,4.09054576 C7.65823981,5.16700517 7.41219194,6.24346458 7.22765604,7.16614408 C8.02731161,6.52026843 9.16528298,5.62834492 10.979886,4.30583764 L16.8235228,0 L24.7278105,0 L17.1003266,5.04398124 C14.4245561,6.79707228 13.1943168,7.59672784 11.9640775,8.27335947 C12.825245,8.9499911 14.0247283,9.93418256 15.9623553,11.7795416 L22.2365758,17.5924224 L22.2058198,17.6539343 Z" id="Path"></path><path d="M42.1972089,7.04312014 C46.0109508,7.04312014 48.0408457,8.42713939 48.0408457,11.041398 C48.0408457,14.8551399 45.641879,17.6231784 39.3676585,17.6231784 L22.9439634,17.6231784 L27.2498011,13.1020488 L40.5978978,13.1020488 C42.074185,13.1020488 42.7200606,12.6407091 42.7200606,11.5950057 C42.7200606,10.5493022 42.1664529,10.5493022 41.0592375,10.5493022 L31.4326148,10.5493022 C27.434337,10.5493022 25.65049,8.85772315 25.65049,6.30497655 C25.65049,3.75222995 28.1109686,0 34.2621652,0 L49.5786449,0 L45.2728072,4.58264149 L33.0626819,4.58264149 C31.5863947,4.58264149 30.9405191,4.98246927 30.9405191,6.0281727 C30.9405191,7.07387613 31.4941268,7.04312014 32.6320981,7.04312014 L42.2279649,7.04312014 L42.1972089,7.04312014 Z" id="Path"></path><path d="M74.3679673,17.6539343 L67.0787993,17.6539343 L63.972445,12.9790249 L55.6068176,12.9790249 L54.776406,17.6539343 L49.332597,17.6539343 L50.9011521,8.64243127 L66.2176318,8.64243127 C68.0322348,8.64243127 69.6007899,7.78126374 69.6007899,6.33573253 C69.6007899,4.89020132 68.5858425,4.58264149 66.9250194,4.58264149 L51.6085398,4.58264149 L55.9758894,0 L67.2940912,0 C70.9848091,0 75.3521588,1.13797138 75.3521588,5.35154107 C75.3521588,9.56511076 73.04546,11.2259339 69.6623019,11.8718095 C70.1543976,12.3331492 70.7080053,12.9482689 71.6921968,14.1785082 L74.3679673,17.5924224 L74.3679673,17.6539343 Z" id="Path"></path></g><g id="Group" transform="translate(94.6362, 41.7617)" fill="#FFFFFF"><path d="M8.82696717,17.9307382 L12.9482689,13.4096087 L17.3463745,13.4096087 C18.4228339,13.4096087 19.6530732,13.4096087 20.4834848,13.4711206 C20.114413,12.825245 19.5608053,11.7487856 19.1302215,10.918374 L16.7927668,6.24346458 L6.45875646,17.9307382 L0,17.9307382 L14.1169963,1.99913891 C15.0396758,0.984191461 16.2699151,0.0307559832 17.9922502,0.0307559832 C19.7145852,0.0307559832 20.5449968,0.891923512 21.1293604,1.99913891 L29.310452,17.9307382 L8.82696717,17.9307382 L8.82696717,17.9307382 Z" id="Path"></path><path d="M55.5145496,10.2417424 C54.5611141,15.5625275 50.4705684,18.238298 43.1198884,18.238298 C35.7692084,18.238298 32.2015144,16.1161352 32.2015144,11.9025655 C32.2015144,7.68899579 32.2630263,10.8261061 32.3552943,10.2417424 L34.1083853,0.307559832 L39.5521944,0.307559832 L37.7683473,10.2417424 C37.7068354,10.6108142 37.6760794,10.918374 37.6760794,11.2259339 C37.6760794,13.0712928 39.0600986,13.7171685 43.858032,13.7171685 C48.6559654,13.7171685 49.5171329,12.732977 49.9784726,10.2724984 L51.7315637,0.338315815 L57.2061287,0.338315815 L55.4530376,10.2724984 L55.5145496,10.2417424 Z" id="Path"></path><polygon id="Path" points="82.272255 0.307559832 77.9049054 4.89020132 71.6306848 4.89020132 69.3239861 17.9307382 63.880177 17.9307382 66.1868758 4.89020132 57.9135163 4.89020132 62.2808659 0.307559832 82.303011 0.307559832"></polygon><path d="M107.738209,7.47370391 C107.738209,14.7321159 102.940276,18.207542 93.0676051,18.207542 C83.1949345,18.207542 81.5956233,15.8393313 81.5956233,10.7338381 C81.5956233,3.4754261 86.3935567,0 96.2662273,0 C106.138898,0 107.738209,2.33745472 107.738209,7.44294793 L107.738209,7.47370391 Z M102.263644,8.02731161 C102.263644,5.19776115 100.264505,4.61339747 95.4665717,4.61339747 C88.3926956,4.61339747 87.1009443,5.68985689 87.1009443,10.2109864 C87.1009443,14.7321159 89.1308392,13.6249005 93.8672606,13.6249005 C100.941137,13.6249005 102.263644,12.5176851 102.263644,8.02731161 L102.263644,8.02731161 Z" id="Shape"></path><polygon id="Path" points="115.550229 0.307559832 112.720678 7.38143596 111.059855 7.38143596 110.690783 0.307559832 115.550229 0.307559832"></polygon><path d="M132.742823,7.31992399 C136.556565,7.31992399 138.58646,8.70394324 138.58646,11.3182018 C138.58646,15.1319437 136.187493,17.8999822 129.913273,17.8999822 L113.489578,17.8999822 L117.795416,13.3788527 L131.143512,13.3788527 C132.619799,13.3788527 133.265675,12.9175129 133.265675,11.8718095 C133.265675,10.8261061 132.712067,10.8261061 131.604852,10.8261061 L121.978229,10.8261061 C117.979951,10.8261061 116.196104,9.134527 116.196104,6.5817804 C116.196104,4.02903379 118.656583,0.276803848 124.80778,0.276803848 L140.124259,0.276803848 L135.818422,4.85944534 L123.608296,4.85944534 C122.132009,4.85944534 121.486134,5.25927312 121.486134,6.30497655 C121.486134,7.35067998 122.039741,7.31992399 123.177713,7.31992399 L132.773579,7.31992399 L132.742823,7.31992399 Z" id="Path"></path></g></g></g></g></svg>